<svg xmlns="http://www.w3.org/2000/svg" viewBox="0 0 24 24"><path fill="currentColor" d="M15.18 7A5.9 5.9 0 0 1 17 8.86l3.8-1.56a10 10 0 0 0-4.06-4.09zM21.56 14.92a10 10 0 0 0 0-5.77l-3.8 1.56a5.86 5.86 0 0 1 0 2.63zM10.71 6.21a5.9 5.9 0 0 1 2.63 0l1.58-3.78a10 10 0 0 0-5.76 0zM6.22 10.66L2.44 9.08a10 10 0 0 0 0 5.77l3.8-1.56A5.86 5.86 0 0 1 6.22 10.66zM8.82 17A5.9 5.9 0 0 1 7 15.14L3.2 16.69a9.92 9.92 0 0 0 4 4.08zM17 15.18A5.85 5.85 0 0 1 15.14 17l1.56 3.8a10 10 0 0 0 4.09-4.06zM7 8.82A5.85 5.85 0 0 1 8.86 7L7.3 3.17A10 10 0 0 0 3.21 7.24zM13.29 17.79a5.51 5.51 0 0 1-2.62 0L9.08 21.56a9.92 9.92 0 0 0 5.76 0z"/></svg>